<svg width="10" height="19" viewBox="0 0 10 19" fill="none" xmlns="http://www.w3.org/2000/svg">
<g filter="url(#filter0_d_5_174)">
<path d="M4.12659 5.80186L9.26514 10.8756C9.4335 11.0417 9.70608 11.0415 9.87415 10.8747C10.0421 10.7081 10.0417 10.438 9.87329 10.2717L5.0406 5.49998L9.87346 0.728231C10.0418 0.561943 10.0423 0.292078 9.87433 0.12536C9.79007 0.0417863 9.67969 -2.38419e-07 9.56931 -2.38419e-07C9.45921 -2.38419e-07 9.34927 0.0415071 9.26516 0.124501L4.12659 5.19812C4.0455 5.278 4 5.38671 4 5.49998C4 5.61324 4.04563 5.72183 4.12659 5.80186Z" fill="black"/>
</g>
<defs>
<filter id="filter0_d_5_174" x="0" y="0" width="14" height="19" filterUnits="userSpaceOnUse" color-interpolation-filters="sRGB">
<feFlood flood-opacity="0" result="BackgroundImageFix"/>
<feColorMatrix in="SourceAlpha" type="matrix" values="0 0 0 0 0 0 0 0 0 0 0 0 0 0 0 0 0 0 127 0" result="hardAlpha"/>
<feOffset dy="4"/>
<feGaussianBlur stdDeviation="2"/>
<feComposite in2="hardAlpha" operator="out"/>
<feColorMatrix type="matrix" values="0 0 0 0 0 0 0 0 0 0 0 0 0 0 0 0 0 0 0.25 0"/>
<feBlend mode="normal" in2="BackgroundImageFix" result="effect1_dropShadow_5_174"/>
<feBlend mode="normal" in="SourceGraphic" in2="effect1_dropShadow_5_174" result="shape"/>
</filter>
</defs>
</svg>
